<svg version="1.1" xmlns="http://www.w3.org/2000/svg" xmlns:xlink="http://www.w3.org/1999/xlink" width="1190.17724609375" height="892"><defs/><g><g transform="translate(-6,10) scale(1,1)"><rect fill="#C0C0C0" stroke="none" x="127" y="7" width="968" height="872" opacity="0.2"/></g><g transform="translate(-6,10) scale(1,1)"><rect fill="#ffffff" stroke="none" x="120" y="0" width="968" height="872"/></g><g transform="translate(-6,10) scale(1,1)"><path fill="none" stroke="#000000" d="M 120 0 L 1088 0 L 1088 872 L 120 872 L 120 0 Z Z" stroke-miterlimit="10"/></g><g transform="translate(-6,10) scale(1,1)"><g><path fill="none" stroke="none"/><text fill="#000000" stroke="none" font-family="Arial" font-size="13px" font-style="normal" font-weight="bold" text-decoration="none" x="553.06640625" y="18">Gestão de Stock</text></g></g><g transform="translate(-6,10) scale(1,1)"><path fill="#ffffff" stroke="none" d="M 65.28386203835227 313.68 C 65.28386203835227 308.886167936 69.16970436329773 305 73.963134765625 305 C 78.75656516795227 305 82.64240749289773 308.886167936 82.64240749289773 313.68 C 82.64240749289773 318.473832064 78.75656516795227 322.36 73.963134765625 322.36 C 69.16970436329773 322.36 65.28386203835227 318.473832064 65.28386203835227 313.68 Z"/></g><g transform="translate(-6,10) scale(1,1)"><path fill="none" stroke="#000000" d="M 65.28386203835227 313.68 C 65.28386203835227 308.886167936 69.16970436329773 305 73.963134765625 305 C 78.75656516795227 305 82.64240749289773 308.886167936 82.64240749289773 313.68 C 82.64240749289773 318.473832064 78.75656516795227 322.36 73.963134765625 322.36 C 69.16970436329773 322.36 65.28386203835227 318.473832064 65.28386203835227 313.68 Z" stroke-miterlimit="10"/></g><g transform="translate(-6,10) scale(1,1)"><path fill="none" stroke="#000000" d="M 73.963134765625 322.36 L 73.963134765625 339.64" stroke-miterlimit="10"/></g><g transform="translate(-6,10) scale(1,1)"><path fill="none" stroke="#000000" d="M 64.77331658380682 328.84 L 83.15295294744318 328.84" stroke-miterlimit="10"/></g><g transform="translate(-6,10) scale(1,1)"><path fill="none" stroke="#000000" d="M 73.963134765625 339.64 L 61.199498401988635 357" stroke-miterlimit="10"/></g><g transform="translate(-6,10) scale(1,1)"><path fill="none" stroke="#000000" d="M 73.963134765625 339.64 L 86.72677112926137 357" stroke-miterlimit="10"/></g><g transform="translate(-6,10) scale(1,1)"><g><path fill="none" stroke="none"/><text fill="#000000" stroke="none" font-family="Arial" font-size="13px" font-style="normal" font-weight="bold" text-decoration="none" x="20.5" y="376">Gerente de Stock</text></g></g><g transform="translate(-6,10) scale(1,1)"><path fill="#ffffff" stroke="none" d="M 1152.4093503196023 281.68 C 1152.4093503196023 276.886167936 1156.2951926445478 273 1161.088623046875 273 C 1165.8820534492022 273 1169.7678957741477 276.886167936 1169.7678957741477 281.68 C 1169.7678957741477 286.473832064 1165.8820534492022 290.36 1161.088623046875 290.36 C 1156.2951926445478 290.36 1152.4093503196023 286.473832064 1152.4093503196023 281.68 Z"/></g><g transform="translate(-6,10) scale(1,1)"><path fill="none" stroke="#000000" d="M 1152.4093503196023 281.68 C 1152.4093503196023 276.886167936 1156.2951926445478 273 1161.088623046875 273 C 1165.8820534492022 273 1169.7678957741477 276.886167936 1169.7678957741477 281.68 C 1169.7678957741477 286.473832064 1165.8820534492022 290.36 1161.088623046875 290.36 C 1156.2951926445478 290.36 1152.4093503196023 286.473832064 1152.4093503196023 281.68 Z" stroke-miterlimit="10"/></g><g transform="translate(-6,10) scale(1,1)"><path fill="none" stroke="#000000" d="M 1161.088623046875 290.36 L 1161.088623046875 307.64" stroke-miterlimit="10"/></g><g transform="translate(-6,10) scale(1,1)"><path fill="none" stroke="#000000" d="M 1151.8988048650567 296.84 L 1170.2784412286933 296.84" stroke-miterlimit="10"/></g><g transform="translate(-6,10) scale(1,1)"><path fill="none" stroke="#000000" d="M 1161.088623046875 307.64 L 1148.3249866832386 325" stroke-miterlimit="10"/></g><g transform="translate(-6,10) scale(1,1)"><path fill="none" stroke="#000000" d="M 1161.088623046875 307.64 L 1173.8522594105114 325" stroke-miterlimit="10"/></g><g transform="translate(-6,10) scale(1,1)"><g><path fill="none" stroke="none"/><text fill="#000000" stroke="none" font-family="Arial" font-size="13px" font-style="normal" font-weight="bold" text-decoration="none" x="1146.285888671875" y="344">ADM</text></g></g><g transform="translate(-6,10) scale(1,1)"><path fill="#C0C0C0" stroke="none" d="M 231 32 C 231 22.6111584 256.9674816 15 289 15 C 321.0325184 15 347 22.6111584 347 32 C 347 41.3888416 321.0325184 49 289 49 C 256.9674816 49 231 41.3888416 231 32 Z" opacity="0.2"/></g><g transform="translate(-6,10) scale(1,1)"><path fill="#ffffff" stroke="none" d="M 224 25 C 224 15.611158399999999 249.96748159999999 8 282 8 C 314.0325184 8 340 15.611158399999999 340 25 C 340 34.3888416 314.0325184 42 282 42 C 249.96748159999999 42 224 34.3888416 224 25 Z"/></g><g transform="translate(-6,10) scale(1,1)"><path fill="none" stroke="#000000" d="M 224 25 C 224 15.611158399999999 249.96748159999999 8 282 8 C 314.0325184 8 340 15.611158399999999 340 25 C 340 34.3888416 314.0325184 42 282 42 C 249.96748159999999 42 224 34.3888416 224 25 Z" stroke-miterlimit="10"/></g><g transform="translate(-6,10) scale(1,1)"><g><path fill="none" stroke="none"/><text fill="#000000" stroke="none" font-family="Arial" font-size="13px" font-style="normal" font-weight="bold" text-decoration="none" x="245.5263671875" y="30.5">Fazer Login</text></g></g><g transform="translate(-6,10) scale(1,1)"><path fill="#C0C0C0" stroke="none" d="M 175 104 C 175 94.6111584 240.8141344 87 322 87 C 403.1858656 87 469 94.6111584 469 104 C 469 113.3888416 403.1858656 121 322 121 C 240.8141344 121 175 113.3888416 175 104 Z" opacity="0.2"/></g><g transform="translate(-6,10) scale(1,1)"><path fill="#ffffff" stroke="none" d="M 168 97 C 168 87.6111584 233.8141344 80 315 80 C 396.1858656 80 462 87.6111584 462 97 C 462 106.3888416 396.1858656 114 315 114 C 233.8141344 114 168 106.3888416 168 97 Z"/></g><g transform="translate(-6,10) scale(1,1)"><path fill="none" stroke="#000000" d="M 168 97 C 168 87.6111584 233.8141344 80 315 80 C 396.1858656 80 462 87.6111584 462 97 C 462 106.3888416 396.1858656 114 315 114 C 233.8141344 114 168 106.3888416 168 97 Z" stroke-miterlimit="10"/></g><g transform="translate(-6,10) scale(1,1)"><g><path fill="none" stroke="none"/><text fill="#000000" stroke="none" font-family="Arial" font-size="13px" font-style="normal" font-weight="bold" text-decoration="none" x="215.41796875" y="102.5">Visualizar Status Geral do Stock</text></g></g><g transform="translate(-6,10) scale(1,1)"><path fill="#C0C0C0" stroke="none" d="M 215 200 C 215 190.6111584 246.7877792 183 286 183 C 325.2122208 183 357 190.6111584 357 200 C 357 209.3888416 325.2122208 217 286 217 C 246.7877792 217 215 209.3888416 215 200 Z" opacity="0.2"/></g><g transform="translate(-6,10) scale(1,1)"><path fill="#ffffff" stroke="none" d="M 208 193 C 208 183.6111584 239.7877792 176 279 176 C 318.2122208 176 350 183.6111584 350 193 C 350 202.3888416 318.2122208 210 279 210 C 239.7877792 210 208 202.3888416 208 193 Z"/></g><g transform="translate(-6,10) scale(1,1)"><path fill="none" stroke="#000000" d="M 208 193 C 208 183.6111584 239.7877792 176 279 176 C 318.2122208 176 350 183.6111584 350 193 C 350 202.3888416 318.2122208 210 279 210 C 239.7877792 210 208 202.3888416 208 193 Z" stroke-miterlimit="10"/></g><g transform="translate(-6,10) scale(1,1)"><g><path fill="none" stroke="none"/><text fill="#000000" stroke="none" font-family="Arial" font-size="13px" font-style="normal" font-weight="bold" text-decoration="none" x="233.1318359375" y="198.5">Gerir Produtos</text></g></g><g transform="translate(-6,10) scale(1,1)"><path fill="#C0C0C0" stroke="none" d="M 191 384 C 191 374.6111584 231.9659408 367 282.5 367 C 333.0340592 367 374 374.6111584 374 384 C 374 393.3888416 333.0340592 401 282.5 401 C 231.9659408 401 191 393.3888416 191 384 Z" opacity="0.2"/></g><g transform="translate(-6,10) scale(1,1)"><path fill="#ffffff" stroke="none" d="M 184 377 C 184 367.6111584 224.9659408 360 275.5 360 C 326.0340592 360 367 367.6111584 367 377 C 367 386.3888416 326.0340592 394 275.5 394 C 224.9659408 394 184 386.3888416 184 377 Z"/></g><g transform="translate(-6,10) scale(1,1)"><path fill="none" stroke="#000000" d="M 184 377 C 184 367.6111584 224.9659408 360 275.5 360 C 326.0340592 360 367 367.6111584 367 377 C 367 386.3888416 326.0340592 394 275.5 394 C 224.9659408 394 184 386.3888416 184 377 Z" stroke-miterlimit="10"/></g><g transform="translate(-6,10) scale(1,1)"><g><path fill="none" stroke="none"/><text fill="#000000" stroke="none" font-family="Arial" font-size="13px" font-style="normal" font-weight="bold" text-decoration="none" x="215.175048828125" y="382.5">Exibir  Notificações</text></g></g><g transform="translate(-6,10) scale(1,1)"><path fill="none" stroke="#000000" d="M 84 303 L 144 80 L 237 43" stroke-miterlimit="10"/></g><g transform="translate(-6,10) scale(1,1)"><path fill="none" stroke="#000000" d="M 98 303 L 176 176 L 283 115" stroke-miterlimit="10"/></g><g transform="translate(-6,10) scale(1,1)"><path fill="none" stroke="#000000" d="M 128 303 L 254 211" stroke-miterlimit="10"/></g><g transform="translate(-6,10) scale(1,1)"><path fill="none" stroke="#000000" d="M 133 353 L 183 362" stroke-miterlimit="10"/></g><g transform="translate(-6,10) scale(1,1)"><path fill="#C0C0C0" stroke="none" d="M 495 160 C 495 150.6111584 539.77152 143 595 143 C 650.22848 143 695 150.6111584 695 160 C 695 169.3888416 650.22848 177 595 177 C 539.77152 177 495 169.3888416 495 160 Z" opacity="0.2"/></g><g transform="translate(-6,10) scale(1,1)"><path fill="#ffffff" stroke="none" d="M 488 153 C 488 143.6111584 532.77152 136 588 136 C 643.22848 136 688 143.6111584 688 153 C 688 162.3888416 643.22848 170 588 170 C 532.77152 170 488 162.3888416 488 153 Z"/></g><g transform="translate(-6,10) scale(1,1)"><path fill="none" stroke="#000000" d="M 488 153 C 488 143.6111584 532.77152 136 588 136 C 643.22848 136 688 143.6111584 688 153 C 688 162.3888416 643.22848 170 588 170 C 532.77152 170 488 162.3888416 488 153 Z" stroke-miterlimit="10"/></g><g transform="translate(-6,10) scale(1,1)"><g><path fill="none" stroke="none"/><text fill="#000000" stroke="none" font-family="Arial" font-size="13px" font-style="normal" font-weight="bold" text-decoration="none" x="532.74365234375" y="158.5">Registrar Produto</text></g></g><g transform="translate(-6,10) scale(1,1)"><path fill="#C0C0C0" stroke="none" d="M 575 304 C 575 294.6111584 612.3842192 287 658.5 287 C 704.6157808 287 742 294.6111584 742 304 C 742 313.3888416 704.6157808 321 658.5 321 C 612.3842192 321 575 313.3888416 575 304 Z" opacity="0.2"/></g><g transform="translate(-6,10) scale(1,1)"><path fill="#ffffff" stroke="none" d="M 568 297 C 568 287.6111584 605.3842192 280 651.5 280 C 697.6157808 280 735 287.6111584 735 297 C 735 306.3888416 697.6157808 314 651.5 314 C 605.3842192 314 568 306.3888416 568 297 Z"/></g><g transform="translate(-6,10) scale(1,1)"><path fill="none" stroke="#000000" d="M 568 297 C 568 287.6111584 605.3842192 280 651.5 280 C 697.6157808 280 735 287.6111584 735 297 C 735 306.3888416 697.6157808 314 651.5 314 C 605.3842192 314 568 306.3888416 568 297 Z" stroke-miterlimit="10"/></g><g transform="translate(-6,10) scale(1,1)"><g><path fill="none" stroke="none"/><text fill="#000000" stroke="none" font-family="Arial" font-size="13px" font-style="normal" font-weight="bold" text-decoration="none" x="596.964111328125" y="302.5">Remover Produto</text></g></g><g transform="translate(-6,10) scale(1,1)"><path fill="none" stroke="#000000" d="M 614 279 L 522 235" stroke-miterlimit="10" stroke-dasharray="3"/></g><g transform="translate(-6,10) scale(1,1)"><path fill="none" stroke="#000000" d="M 532.9843163492509 235.5871919103502 L 522 235 L 529.351877195587 243.18229195892005" stroke-miterlimit="10"/></g><g transform="translate(-6,10) scale(1,1)"><g><path fill="none" stroke="none"/><text fill="#000000" stroke="none" font-family="Arial" font-size="13px" font-style="normal" font-weight="normal" text-decoration="none" x="510.5" y="272">«extend»</text></g></g><g transform="translate(-6,10) scale(1,1)"><path fill="#C0C0C0" stroke="none" d="M 887 88 C 887 78.6111584 912.9674816 71 945 71 C 977.0325184 71 1003 78.6111584 1003 88 C 1003 97.3888416 977.0325184 105 945 105 C 912.9674816 105 887 97.3888416 887 88 Z" opacity="0.2"/></g><g transform="translate(-6,10) scale(1,1)"><path fill="#ffffff" stroke="none" d="M 880 81 C 880 71.6111584 905.9674816 64 938 64 C 970.0325184 64 996 71.6111584 996 81 C 996 90.3888416 970.0325184 98 938 98 C 905.9674816 98 880 90.3888416 880 81 Z"/></g><g transform="translate(-6,10) scale(1,1)"><path fill="none" stroke="#000000" d="M 880 81 C 880 71.6111584 905.9674816 64 938 64 C 970.0325184 64 996 71.6111584 996 81 C 996 90.3888416 970.0325184 98 938 98 C 905.9674816 98 880 90.3888416 880 81 Z" stroke-miterlimit="10"/></g><g transform="translate(-6,10) scale(1,1)"><g><path fill="none" stroke="none"/><text fill="#000000" stroke="none" font-family="Arial" font-size="13px" font-style="normal" font-weight="bold" text-decoration="none" x="901.5263671875" y="86.5">Fazer Login</text></g></g><g transform="translate(-6,10) scale(1,1)"><path fill="#C0C0C0" stroke="none" d="M 831 184 C 831 174.6111584 869.7273648 167 917.5 167 C 965.2726352 167 1004 174.6111584 1004 184 C 1004 193.3888416 965.2726352 201 917.5 201 C 869.7273648 201 831 193.3888416 831 184 Z" opacity="0.2"/></g><g transform="translate(-6,10) scale(1,1)"><path fill="#ffffff" stroke="none" d="M 824 177 C 824 167.6111584 862.7273648 160 910.5 160 C 958.2726352 160 997 167.6111584 997 177 C 997 186.3888416 958.2726352 194 910.5 194 C 862.7273648 194 824 186.3888416 824 177 Z"/></g><g transform="translate(-6,10) scale(1,1)"><path fill="none" stroke="#000000" d="M 824 177 C 824 167.6111584 862.7273648 160 910.5 160 C 958.2726352 160 997 167.6111584 997 177 C 997 186.3888416 958.2726352 194 910.5 194 C 862.7273648 194 824 186.3888416 824 177 Z" stroke-miterlimit="10"/></g><g transform="translate(-6,10) scale(1,1)"><g><path fill="none" stroke="none"/><text fill="#000000" stroke="none" font-family="Arial" font-size="13px" font-style="normal" font-weight="bold" text-decoration="none" x="853.77734375" y="182.5">Gerenciar Gerente</text></g></g><g transform="translate(-6,10) scale(1,1)"><path fill="#C0C0C0" stroke="none" d="M 847 256 C 847 246.6111584 880.1309248 239 921 239 C 961.8690752 239 995 246.6111584 995 256 C 995 265.3888416 961.8690752 273 921 273 C 880.1309248 273 847 265.3888416 847 256 Z" opacity="0.2"/></g><g transform="translate(-6,10) scale(1,1)"><path fill="#ffffff" stroke="none" d="M 840 249 C 840 239.6111584 873.1309248 232 914 232 C 954.8690752 232 988 239.6111584 988 249 C 988 258.3888416 954.8690752 266 914 266 C 873.1309248 266 840 258.3888416 840 249 Z"/></g><g transform="translate(-6,10) scale(1,1)"><path fill="none" stroke="#000000" d="M 840 249 C 840 239.6111584 873.1309248 232 914 232 C 954.8690752 232 988 239.6111584 988 249 C 988 258.3888416 954.8690752 266 914 266 C 873.1309248 266 840 258.3888416 840 249 Z" stroke-miterlimit="10"/></g><g transform="translate(-6,10) scale(1,1)"><g><path fill="none" stroke="none"/><text fill="#000000" stroke="none" font-family="Arial" font-size="13px" font-style="normal" font-weight="bold" text-decoration="none" x="866.072021484375" y="254.5">Vizualizar Perfil</text></g></g><g transform="translate(-6,10) scale(1,1)"><path fill="#C0C0C0" stroke="none" d="M 791 328 C 791 318.6111584 845.3973968 311 912.5 311 C 979.6026032 311 1034 318.6111584 1034 328 C 1034 337.3888416 979.6026032 345 912.5 345 C 845.3973968 345 791 337.3888416 791 328 Z" opacity="0.2"/></g><g transform="translate(-6,10) scale(1,1)"><path fill="#ffffff" stroke="none" d="M 784 321 C 784 311.6111584 838.3973968 304 905.5 304 C 972.6026032 304 1027 311.6111584 1027 321 C 1027 330.3888416 972.6026032 338 905.5 338 C 838.3973968 338 784 330.3888416 784 321 Z"/></g><g transform="translate(-6,10) scale(1,1)"><path fill="none" stroke="#000000" d="M 784 321 C 784 311.6111584 838.3973968 304 905.5 304 C 972.6026032 304 1027 311.6111584 1027 321 C 1027 330.3888416 972.6026032 338 905.5 338 C 838.3973968 338 784 330.3888416 784 321 Z" stroke-miterlimit="10"/></g><g transform="translate(-6,10) scale(1,1)"><g><path fill="none" stroke="none"/><text fill="#000000" stroke="none" font-family="Arial" font-size="13px" font-style="normal" font-weight="bold" text-decoration="none" x="823.986572265625" y="326.5">Vizualizar Status Do Stock</text></g></g><g transform="translate(-6,10) scale(1,1)"><path fill="#C0C0C0" stroke="none" d="M 735 40 C 735 30.6111584 757.6096176 23 785.5 23 C 813.3903824 23 836 30.6111584 836 40 C 836 49.3888416 813.3903824 57 785.5 57 C 757.6096176 57 735 49.3888416 735 40 Z" opacity="0.2"/></g><g transform="translate(-6,10) scale(1,1)"><path fill="#ffffff" stroke="none" d="M 728 33 C 728 23.6111584 750.6096176 16 778.5 16 C 806.3903824 16 829 23.6111584 829 33 C 829 42.3888416 806.3903824 50 778.5 50 C 750.6096176 50 728 42.3888416 728 33 Z"/></g><g transform="translate(-6,10) scale(1,1)"><path fill="none" stroke="#000000" d="M 728 33 C 728 23.6111584 750.6096176 16 778.5 16 C 806.3903824 16 829 23.6111584 829 33 C 829 42.3888416 806.3903824 50 778.5 50 C 750.6096176 50 728 42.3888416 728 33 Z" stroke-miterlimit="10"/></g><g transform="translate(-6,10) scale(1,1)"><g><path fill="none" stroke="none"/><text fill="#000000" stroke="none" font-family="Arial" font-size="13px" font-style="normal" font-weight="bold" text-decoration="none" x="748.15185546875" y="38.5">Cadastrar</text></g></g><g transform="translate(-6,10) scale(1,1)"><path fill="#C0C0C0" stroke="none" d="M 695 112 C 695 102.6111584 717.6096176 95 745.5 95 C 773.3903824 95 796 102.6111584 796 112 C 796 121.3888416 773.3903824 129 745.5 129 C 717.6096176 129 695 121.3888416 695 112 Z" opacity="0.2"/></g><g transform="translate(-6,10) scale(1,1)"><path fill="#ffffff" stroke="none" d="M 688 105 C 688 95.6111584 710.6096176 88 738.5 88 C 766.3903824 88 789 95.6111584 789 105 C 789 114.3888416 766.3903824 122 738.5 122 C 710.6096176 122 688 114.3888416 688 105 Z"/></g><g transform="translate(-6,10) scale(1,1)"><path fill="none" stroke="#000000" d="M 688 105 C 688 95.6111584 710.6096176 88 738.5 88 C 766.3903824 88 789 95.6111584 789 105 C 789 114.3888416 766.3903824 122 738.5 122 C 710.6096176 122 688 114.3888416 688 105 Z" stroke-miterlimit="10"/></g><g transform="translate(-6,10) scale(1,1)"><g><path fill="none" stroke="none"/><text fill="#000000" stroke="none" font-family="Arial" font-size="13px" font-style="normal" font-weight="bold" text-decoration="none" x="712.852294921875" y="110.5">Eliminar</text></g></g><g transform="translate(-6,10) scale(1,1)"><path fill="#C0C0C0" stroke="none" d="M 231 648 C 231 638.6111584 264.1309248 631 305 631 C 345.8690752 631 379 638.6111584 379 648 C 379 657.3888416 345.8690752 665 305 665 C 264.1309248 665 231 657.3888416 231 648 Z" opacity="0.2"/></g><g transform="translate(-6,10) scale(1,1)"><path fill="#ffffff" stroke="none" d="M 224 641 C 224 631.6111584 257.1309248 624 298 624 C 338.8690752 624 372 631.6111584 372 641 C 372 650.3888416 338.8690752 658 298 658 C 257.1309248 658 224 650.3888416 224 641 Z"/></g><g transform="translate(-6,10) scale(1,1)"><path fill="none" stroke="#000000" d="M 224 641 C 224 631.6111584 257.1309248 624 298 624 C 338.8690752 624 372 631.6111584 372 641 C 372 650.3888416 338.8690752 658 298 658 C 257.1309248 658 224 650.3888416 224 641 Z" stroke-miterlimit="10"/></g><g transform="translate(-6,10) scale(1,1)"><g><path fill="none" stroke="none"/><text fill="#000000" stroke="none" font-family="Arial" font-size="13px" font-style="normal" font-weight="bold" text-decoration="none" x="250.072021484375" y="646.5">Vizualizar Perfil</text></g></g><g transform="translate(-6,10) scale(1,1)"><path fill="none" stroke="#000000" d="M 92 384 L 168 544 L 274 623" stroke-miterlimit="10"/></g><g transform="translate(-6,10) scale(1,1)"><path fill="#C0C0C0" stroke="none" d="M 583 752 C 583 742.6111584 611.2060576 735 646 735 C 680.7939424 735 709 742.6111584 709 752 C 709 761.3888416 680.7939424 769 646 769 C 611.2060576 769 583 761.3888416 583 752 Z" opacity="0.2"/></g><g transform="translate(-6,10) scale(1,1)"><path fill="#ffffff" stroke="none" d="M 576 745 C 576 735.6111584 604.2060576 728 639 728 C 673.7939424 728 702 735.6111584 702 745 C 702 754.3888416 673.7939424 762 639 762 C 604.2060576 762 576 754.3888416 576 745 Z"/></g><g transform="translate(-6,10) scale(1,1)"><path fill="none" stroke="#000000" d="M 576 745 C 576 735.6111584 604.2060576 728 639 728 C 673.7939424 728 702 735.6111584 702 745 C 702 754.3888416 673.7939424 762 639 762 C 604.2060576 762 576 754.3888416 576 745 Z" stroke-miterlimit="10"/></g><g transform="translate(-6,10) scale(1,1)"><g><path fill="none" stroke="none"/><text fill="#000000" stroke="none" font-family="Arial" font-size="13px" font-style="normal" font-weight="bold" text-decoration="none" x="598.908203125" y="750.5">Editar Dados</text></g></g><g transform="translate(-6,10) scale(1,1)"><path fill="none" stroke="#000000" d="M 575 740 L 424 728 L 324 659" stroke-miterlimit="10" stroke-dasharray="3"/></g><g transform="translate(-6,10) scale(1,1)"><path fill="none" stroke="#000000" d="M 334.7553871453853 661.3068696003197 L 324 659 L 329.9740040470894 668.2364103224878" stroke-miterlimit="10"/></g><g transform="translate(-6,10) scale(1,1)"><g><path fill="none" stroke="none"/><text fill="#000000" stroke="none" font-family="Arial" font-size="13px" font-style="normal" font-weight="normal" text-decoration="none" x="390.5" y="756">«extend»</text></g></g><g transform="translate(-6,10) scale(1,1)"><path fill="none" stroke="#000000" d="M 1135 277 L 1016 120 L 974 99" stroke-miterlimit="10"/></g><g transform="translate(-6,10) scale(1,1)"><path fill="none" stroke="#000000" d="M 1135 297 L 944 195" stroke-miterlimit="10"/></g><g transform="translate(-6,10) scale(1,1)"><path fill="none" stroke="#000000" d="M 1135 312 L 1028 316" stroke-miterlimit="10"/></g><g transform="translate(-6,10) scale(1,1)"><path fill="none" stroke="#000000" d="M 1135 304 L 986 267" stroke-miterlimit="10"/></g><g transform="translate(-6,10) scale(1,1)"><path fill="#C0C0C0" stroke="none" d="M 815 384 C 815 374.6111584 862.6816688 367 921.5 367 C 980.3183312 367 1028 374.6111584 1028 384 C 1028 393.3888416 980.3183312 401 921.5 401 C 862.6816688 401 815 393.3888416 815 384 Z" opacity="0.2"/></g><g transform="translate(-6,10) scale(1,1)"><path fill="#ffffff" stroke="none" d="M 808 377 C 808 367.6111584 855.6816688 360 914.5 360 C 973.3183312 360 1021 367.6111584 1021 377 C 1021 386.3888416 973.3183312 394 914.5 394 C 855.6816688 394 808 386.3888416 808 377 Z"/></g><g transform="translate(-6,10) scale(1,1)"><path fill="none" stroke="#000000" d="M 808 377 C 808 367.6111584 855.6816688 360 914.5 360 C 973.3183312 360 1021 367.6111584 1021 377 C 1021 386.3888416 973.3183312 394 914.5 394 C 855.6816688 394 808 386.3888416 808 377 Z" stroke-miterlimit="10"/></g><g transform="translate(-6,10) scale(1,1)"><g><path fill="none" stroke="none"/><text fill="#000000" stroke="none" font-family="Arial" font-size="13px" font-style="normal" font-weight="bold" text-decoration="none" x="843.8125" y="382.5">Visualizar Notificações</text></g></g><g transform="translate(-6,10) scale(1,1)"><path fill="none" stroke="#000000" d="M 1135 318 L 981 359" stroke-miterlimit="10"/></g><g transform="translate(-6,10) scale(1,1)"><path fill="none" stroke="#000000" d="M 867 159 L 781 123" stroke-miterlimit="10" stroke-dasharray="3"/></g><g transform="translate(-6,10) scale(1,1)"><path fill="none" stroke="#000000" d="M 791.9999229776927 123.04116412063918 L 781 123 L 788.7490127012107 130.8072275589018" stroke-miterlimit="10"/></g><g transform="translate(-6,10) scale(1,1)"><g><path fill="none" stroke="none"/><text fill="#000000" stroke="none" font-family="Arial" font-size="13px" font-style="normal" font-weight="normal" text-decoration="none" x="758.5" y="163">«extend»</text></g></g><g transform="translate(-6,10) scale(1,1)"><path fill="none" stroke="#000000" d="M 894 159 L 824 80 L 796 51" stroke-miterlimit="10" stroke-dasharray="3"/></g><g transform="translate(-6,10) scale(1,1)"><path fill="none" stroke="#000000" d="M 806.0872714227911 55.38713519770502 L 796 51 L 800.0306049784455 61.234951075004254" stroke-miterlimit="10"/></g><g transform="translate(-6,10) scale(1,1)"><g><path fill="none" stroke="none"/><text fill="#000000" stroke="none" font-family="Arial" font-size="13px" font-style="normal" font-weight="normal" text-decoration="none" x="821.5" y="78">«extend»</text></g></g><g transform="translate(-6,10) scale(1,1)"><path fill="#C0C0C0" stroke="none" d="M 647 240 C 647 230.6111584 678.340064 223 717 223 C 755.659936 223 787 230.6111584 787 240 C 787 249.3888416 755.659936 257 717 257 C 678.340064 257 647 249.3888416 647 240 Z" opacity="0.2"/></g><g transform="translate(-6,10) scale(1,1)"><path fill="#ffffff" stroke="none" d="M 640 233 C 640 223.6111584 671.340064 216 710 216 C 748.659936 216 780 223.6111584 780 233 C 780 242.3888416 748.659936 250 710 250 C 671.340064 250 640 242.3888416 640 233 Z"/></g><g transform="translate(-6,10) scale(1,1)"><path fill="none" stroke="#000000" d="M 640 233 C 640 223.6111584 671.340064 216 710 216 C 748.659936 216 780 223.6111584 780 233 C 780 242.3888416 748.659936 250 710 250 C 671.340064 250 640 242.3888416 640 233 Z" stroke-miterlimit="10"/></g><g transform="translate(-6,10) scale(1,1)"><g><path fill="none" stroke="none"/><text fill="#000000" stroke="none" font-family="Arial" font-size="13px" font-style="normal" font-weight="bold" text-decoration="none" x="664.86181640625" y="238.5">Editar Produto</text></g></g><g transform="translate(-6,10) scale(1,1)"><path fill="#C0C0C0" stroke="none" d="M 199 296 C 199 286.6111584 238.84665280000002 279 288 279 C 337.1533472 279 377 286.6111584 377 296 C 377 305.3888416 337.1533472 313 288 313 C 238.84665280000002 313 199 305.3888416 199 296 Z" opacity="0.2"/></g><g transform="translate(-6,10) scale(1,1)"><path fill="#ffffff" stroke="none" d="M 192 289 C 192 279.6111584 231.84665280000002 272 281 272 C 330.1533472 272 370 279.6111584 370 289 C 370 298.3888416 330.1533472 306 281 306 C 231.84665280000002 306 192 298.3888416 192 289 Z"/></g><g transform="translate(-6,10) scale(1,1)"><path fill="none" stroke="#000000" d="M 192 289 C 192 279.6111584 231.84665280000002 272 281 272 C 330.1533472 272 370 279.6111584 370 289 C 370 298.3888416 330.1533472 306 281 306 C 231.84665280000002 306 192 298.3888416 192 289 Z" stroke-miterlimit="10"/></g><g transform="translate(-6,10) scale(1,1)"><g><path fill="none" stroke="none"/><text fill="#000000" stroke="none" font-family="Arial" font-size="13px" font-style="normal" font-weight="bold" text-decoration="none" x="222.477783203125" y="294.5">Gerir fornecedores</text></g></g><g transform="translate(-6,10) scale(1,1)"><path fill="none" stroke="#000000" d="M 559 171 L 514 199" stroke-miterlimit="10" stroke-dasharray="3"/></g><g transform="translate(-6,10) scale(1,1)"><path fill="none" stroke="#000000" d="M 520.4047900268799 190.0569208484114 L 514 199 L 524.8525823728592 197.20515854730647" stroke-miterlimit="10"/></g><g transform="translate(-6,10) scale(1,1)"><g><path fill="none" stroke="none"/><text fill="#000000" stroke="none" font-family="Arial" font-size="13px" font-style="normal" font-weight="normal" text-decoration="none" x="498.5" y="176">«extend»</text></g></g><g transform="translate(-6,10) scale(1,1)"><path fill="none" stroke="#000000" d="M 639 228 L 595 225" stroke-miterlimit="10" stroke-dasharray="3"/></g><g transform="translate(-6,10) scale(1,1)"><path fill="none" stroke="#000000" d="M 605.4254827444239 221.49153743846102 L 595 225 L 604.8527872145288 229.8910718769221" stroke-miterlimit="10"/></g><g transform="translate(-6,10) scale(1,1)"><g><path fill="none" stroke="none"/><text fill="#000000" stroke="none" font-family="Arial" font-size="13px" font-style="normal" font-weight="normal" text-decoration="none" x="588.5" y="260">«extend»</text></g></g><g transform="translate(-6,10) scale(1,1)"><path fill="#C0C0C0" stroke="none" d="M 383 224 C 383 214.6111584 431.8009568 207 492 207 C 552.1990432 207 601 214.6111584 601 224 C 601 233.3888416 552.1990432 241 492 241 C 431.8009568 241 383 233.3888416 383 224 Z" opacity="0.2"/></g><g transform="translate(-6,10) scale(1,1)"><path fill="#ffffff" stroke="none" d="M 376 217 C 376 207.6111584 424.8009568 200 485 200 C 545.1990432 200 594 207.6111584 594 217 C 594 226.3888416 545.1990432 234 485 234 C 424.8009568 234 376 226.3888416 376 217 Z"/></g><g transform="translate(-6,10) scale(1,1)"><path fill="none" stroke="#000000" d="M 376 217 C 376 207.6111584 424.8009568 200 485 200 C 545.1990432 200 594 207.6111584 594 217 C 594 226.3888416 545.1990432 234 485 234 C 424.8009568 234 376 226.3888416 376 217 Z" stroke-miterlimit="10"/></g><g transform="translate(-6,10) scale(1,1)"><g><path fill="none" stroke="none"/><text fill="#000000" stroke="none" font-family="Arial" font-size="13px" font-style="normal" font-weight="bold" text-decoration="none" x="412.40185546875" y="222.5">Exibir lista de Produtos</text></g></g><g transform="translate(-6,10) scale(1,1)"><path fill="#C0C0C0" stroke="none" d="M 535 672 C 535 662.6111584 582.6816688 655 641.5 655 C 700.3183312 655 748 662.6111584 748 672 C 748 681.3888416 700.3183312 689 641.5 689 C 582.6816688 689 535 681.3888416 535 672 Z" opacity="0.2"/></g><g transform="translate(-6,10) scale(1,1)"><path fill="#ffffff" stroke="none" d="M 528 665 C 528 655.6111584 575.6816688 648 634.5 648 C 693.3183312 648 741 655.6111584 741 665 C 741 674.3888416 693.3183312 682 634.5 682 C 575.6816688 682 528 674.3888416 528 665 Z"/></g><g transform="translate(-6,10) scale(1,1)"><path fill="none" stroke="#000000" d="M 528 665 C 528 655.6111584 575.6816688 648 634.5 648 C 693.3183312 648 741 655.6111584 741 665 C 741 674.3888416 693.3183312 682 634.5 682 C 575.6816688 682 528 674.3888416 528 665 Z" stroke-miterlimit="10"/></g><g transform="translate(-6,10) scale(1,1)"><g><path fill="none" stroke="none"/><text fill="#000000" stroke="none" font-family="Arial" font-size="13px" font-style="normal" font-weight="bold" text-decoration="none" x="563.8125" y="670.5">Visualizar informações</text></g></g><g transform="translate(-6,10) scale(1,1)"><path fill="none" stroke="#000000" d="M 373 646 L 527 657" stroke-miterlimit="10" stroke-dasharray="3"/></g><g transform="translate(-6,10) scale(1,1)"><path fill="none" stroke="#000000" d="M 516.5632358277238 660.4747595042381 L 527 657 L 517.1630672716996 652.0771192885779" stroke-miterlimit="10"/></g><g transform="translate(-6,10) scale(1,1)"><g><path fill="none" stroke="none"/><text fill="#000000" stroke="none" font-family="Arial" font-size="13px" font-style="normal" font-weight="normal" text-decoration="none" x="424.5" y="626">«include»</text></g></g><g transform="translate(-6,10) scale(1,1)"><path fill="none" stroke="#000000" d="M 351 201 L 375 204" stroke-miterlimit="10" stroke-dasharray="3"/></g><g transform="translate(-6,10) scale(1,1)"><path fill="none" stroke="#000000" d="M 364.39367615292934 206.9164866622462 L 375 204 L 365.43792898816133 198.56246398039013" stroke-miterlimit="10"/></g><g transform="translate(-6,10) scale(1,1)"><g><path fill="none" stroke="none"/><text fill="#000000" stroke="none" font-family="Arial" font-size="13px" font-style="normal" font-weight="normal" text-decoration="none" x="339.5" y="177">«include»</text></g></g><g transform="translate(-6,10) scale(1,1)"><path fill="none" stroke="#000000" d="M 133 327 L 212 307" stroke-miterlimit="10"/></g><g transform="translate(-6,10) scale(1,1)"><path fill="#C0C0C0" stroke="none" d="M 519 352 C 519 342.6111584 570.487248 335 634 335 C 697.512752 335 749 342.6111584 749 352 C 749 361.3888416 697.512752 369 634 369 C 570.487248 369 519 361.3888416 519 352 Z" opacity="0.2"/></g><g transform="translate(-6,10) scale(1,1)"><path fill="#ffffff" stroke="none" d="M 512 345 C 512 335.6111584 563.487248 328 627 328 C 690.512752 328 742 335.6111584 742 345 C 742 354.3888416 690.512752 362 627 362 C 563.487248 362 512 354.3888416 512 345 Z"/></g><g transform="translate(-6,10) scale(1,1)"><path fill="none" stroke="#000000" d="M 512 345 C 512 335.6111584 563.487248 328 627 328 C 690.512752 328 742 335.6111584 742 345 C 742 354.3888416 690.512752 362 627 362 C 563.487248 362 512 354.3888416 512 345 Z" stroke-miterlimit="10"/></g><g transform="translate(-6,10) scale(1,1)"><g><path fill="none" stroke="none"/><text fill="#000000" stroke="none" font-family="Arial" font-size="13px" font-style="normal" font-weight="bold" text-decoration="none" x="553.668701171875" y="350.5">Registrar Fornecedores</text></g></g><g transform="translate(-6,10) scale(1,1)"><path fill="#C0C0C0" stroke="none" d="M 375 408 C 375 398.6111584 431.85983039999996 391 502 391 C 572.1401696 391 629 398.6111584 629 408 C 629 417.3888416 572.1401696 425 502 425 C 431.85983039999996 425 375 417.3888416 375 408 Z" opacity="0.2"/></g><g transform="translate(-6,10) scale(1,1)"><path fill="#ffffff" stroke="none" d="M 368 401 C 368 391.6111584 424.85983039999996 384 495 384 C 565.1401696 384 622 391.6111584 622 401 C 622 410.3888416 565.1401696 418 495 418 C 424.85983039999996 418 368 410.3888416 368 401 Z"/></g><g transform="translate(-6,10) scale(1,1)"><path fill="none" stroke="#000000" d="M 368 401 C 368 391.6111584 424.85983039999996 384 495 384 C 565.1401696 384 622 391.6111584 622 401 C 622 410.3888416 565.1401696 418 495 418 C 424.85983039999996 418 368 410.3888416 368 401 Z" stroke-miterlimit="10"/></g><g transform="translate(-6,10) scale(1,1)"><g><path fill="none" stroke="none"/><text fill="#000000" stroke="none" font-family="Arial" font-size="13px" font-style="normal" font-weight="bold" text-decoration="none" x="409.747802734375" y="406.5">Exibir lista de fornecedores</text></g></g><g transform="translate(-6,10) scale(1,1)"><path fill="none" stroke="#000000" d="M 368 387 L 495 401" stroke-miterlimit="10" stroke-dasharray="3"/></g><g transform="translate(-6,10) scale(1,1)"><path fill="none" stroke="#000000" d="M 484.4372692937886 404.0706220913779 L 495 401 L 485.35976378651594 395.70227919306507" stroke-miterlimit="10"/></g><g transform="translate(-6,10) scale(1,1)"><g><path fill="none" stroke="none"/><text fill="#000000" stroke="none" font-family="Arial" font-size="13px" font-style="normal" font-weight="normal" text-decoration="none" x="406.5" y="369">«include»</text></g></g><g transform="translate(-6,10) scale(1,1)"><path fill="#C0C0C0" stroke="none" d="M 495 472 C 495 462.6111584 536.6375136 455 588 455 C 639.3624864 455 681 462.6111584 681 472 C 681 481.3888416 639.3624864 489 588 489 C 536.6375136 489 495 481.3888416 495 472 Z" opacity="0.2"/></g><g transform="translate(-6,10) scale(1,1)"><path fill="#ffffff" stroke="none" d="M 488 465 C 488 455.6111584 529.6375136 448 581 448 C 632.3624864 448 674 455.6111584 674 465 C 674 474.3888416 632.3624864 482 581 482 C 529.6375136 482 488 474.3888416 488 465 Z"/></g><g transform="translate(-6,10) scale(1,1)"><path fill="none" stroke="#000000" d="M 488 465 C 488 455.6111584 529.6375136 448 581 448 C 632.3624864 448 674 455.6111584 674 465 C 674 474.3888416 632.3624864 482 581 482 C 529.6375136 482 488 474.3888416 488 465 Z" stroke-miterlimit="10"/></g><g transform="translate(-6,10) scale(1,1)"><g><path fill="none" stroke="none"/><text fill="#000000" stroke="none" font-family="Arial" font-size="13px" font-style="normal" font-weight="bold" text-decoration="none" x="519.595947265625" y="470.5">Eliminar fornecedor</text></g></g><g transform="translate(-6,10) scale(1,1)"><path fill="#C0C0C0" stroke="none" d="M 671 424 C 671 414.6111584 709.2796496 407 756.5 407 C 803.7203504 407 842 414.6111584 842 424 C 842 433.3888416 803.7203504 441 756.5 441 C 709.2796496 441 671 433.3888416 671 424 Z" opacity="0.2"/></g><g transform="translate(-6,10) scale(1,1)"><path fill="#ffffff" stroke="none" d="M 664 417 C 664 407.6111584 702.2796496 400 749.5 400 C 796.7203504 400 835 407.6111584 835 417 C 835 426.3888416 796.7203504 434 749.5 434 C 702.2796496 434 664 426.3888416 664 417 Z"/></g><g transform="translate(-6,10) scale(1,1)"><path fill="none" stroke="#000000" d="M 664 417 C 664 407.6111584 702.2796496 400 749.5 400 C 796.7203504 400 835 407.6111584 835 417 C 835 426.3888416 796.7203504 434 749.5 434 C 702.2796496 434 664 426.3888416 664 417 Z" stroke-miterlimit="10"/></g><g transform="translate(-6,10) scale(1,1)"><g><path fill="none" stroke="none"/><text fill="#000000" stroke="none" font-family="Arial" font-size="13px" font-style="normal" font-weight="bold" text-decoration="none" x="693.516845703125" y="422.5">Editar Fornecedor</text></g></g><g transform="translate(-6,10) scale(1,1)"><path fill="none" stroke="#000000" d="M 557 447 L 519 419" stroke-miterlimit="10" stroke-dasharray="3"/></g><g transform="translate(-6,10) scale(1,1)"><path fill="none" stroke="#000000" d="M 529.678602600777 421.6395921076327 L 519 419 L 524.6844388337322 428.4173857914794" stroke-miterlimit="10"/></g><g transform="translate(-6,10) scale(1,1)"><g><path fill="none" stroke="none"/><text fill="#000000" stroke="none" font-family="Arial" font-size="13px" font-style="normal" font-weight="normal" text-decoration="none" x="493.5" y="462">«extend»</text></g></g><g transform="translate(-6,10) scale(1,1)"><path fill="none" stroke="#000000" d="M 663 412 L 623 409" stroke-miterlimit="10" stroke-dasharray="3"/></g><g transform="translate(-6,10) scale(1,1)"><path fill="none" stroke="#000000" d="M 633.4490419697382 405.5623377253359 L 623 409 L 632.8193827395489 413.9577941278606" stroke-miterlimit="10"/></g><g transform="translate(-6,10) scale(1,1)"><g><path fill="none" stroke="none"/><text fill="#000000" stroke="none" font-family="Arial" font-size="13px" font-style="normal" font-weight="normal" text-decoration="none" x="614.5" y="444">«extend»</text></g></g><g transform="translate(-6,10) scale(1,1)"><path fill="none" stroke="#000000" d="M 585 363 L 537 383" stroke-miterlimit="10" stroke-dasharray="3"/></g><g transform="translate(-6,10) scale(1,1)"><path fill="none" stroke="#000000" d="M 544.7618853470316 375.2055702030529 L 537 383 L 547.9999759285823 382.9769875987747" stroke-miterlimit="10"/></g><g transform="translate(-6,10) scale(1,1)"><g><path fill="none" stroke="none"/><text fill="#000000" stroke="none" font-family="Arial" font-size="13px" font-style="normal" font-weight="normal" text-decoration="none" x="545.5" y="405">«extend»</text></g></g><g transform="translate(-6,10) scale(1,1)"><path fill="#C0C0C0" stroke="none" d="M 231 504 C 231 494.6111584 262.7877792 487 302 487 C 341.2122208 487 373 494.6111584 373 504 C 373 513.3888416 341.2122208 521 302 521 C 262.7877792 521 231 513.3888416 231 504 Z" opacity="0.2"/></g><g transform="translate(-6,10) scale(1,1)"><path fill="#ffffff" stroke="none" d="M 224 497 C 224 487.6111584 255.7877792 480 295 480 C 334.2122208 480 366 487.6111584 366 497 C 366 506.3888416 334.2122208 514 295 514 C 255.7877792 514 224 506.3888416 224 497 Z"/></g><g transform="translate(-6,10) scale(1,1)"><path fill="none" stroke="#000000" d="M 224 497 C 224 487.6111584 255.7877792 480 295 480 C 334.2122208 480 366 487.6111584 366 497 C 366 506.3888416 334.2122208 514 295 514 C 255.7877792 514 224 506.3888416 224 497 Z" stroke-miterlimit="10"/></g><g transform="translate(-6,10) scale(1,1)"><g><path fill="none" stroke="none"/><text fill="#000000" stroke="none" font-family="Arial" font-size="13px" font-style="normal" font-weight="bold" text-decoration="none" x="249.12548828125" y="502.5">Ficha de Stock</text></g></g><g transform="translate(-6,10) scale(1,1)"><path fill="none" stroke="#000000" d="M 117 384 L 176 440 L 257 479" stroke-miterlimit="10"/></g></g></svg>