<svg version="1.1" xmlns="http://www.w3.org/2000/svg" xmlns:xlink="http://www.w3.org/1999/xlink" width="1380" height="996"><defs/><g><g transform="translate(-22,-110) scale(1,1)"><path fill="none" stroke="#000000" d="M 32 120 L 1392 120 L 1392 1096 L 32 1096 L 32 120" stroke-miterlimit="10"/></g><g transform="translate(-22,-110) scale(1,1)"><path fill="#ffffff" stroke="none" d="M 32 120 L 32 142 L 166.47900390625 142 L 177.47900390625 131 L 177.47900390625 120 L 32 120"/></g><g transform="translate(-22,-110) scale(1,1)"><path fill="none" stroke="#000000" d="M 32 120 L 32 142 L 166.47900390625 142 L 177.47900390625 131 L 177.47900390625 120 L 32 120 L 32 120" stroke-miterlimit="10"/></g><g transform="translate(-22,-110) scale(1,1)"><g><path fill="none" stroke="none"/><text fill="#000000" stroke="none" font-family="Arial" font-size="13px" font-style="normal" font-weight="normal" text-decoration="none" x="72.6181640625" y="136">ClassDiagram1</text></g></g><g transform="translate(-22,-110) scale(1,1)"><g><path fill="none" stroke="none"/><text fill="#000000" stroke="none" font-family="Arial" font-size="13px" font-style="normal" font-weight="bold" text-decoration="none" x="35.543212890625" y="136">class</text></g></g><g transform="translate(-22,-110) scale(1,1)"><rect fill="#C0C0C0" stroke="none" x="1199" y="551" width="147.3662109375" height="117" opacity="0.2"/></g><g transform="translate(-22,-110) scale(1,1)"><rect fill="#ffffff" stroke="none" x="1192" y="544" width="147.3662109375" height="117"/></g><g transform="translate(-22,-110) scale(1,1)"><path fill="none" stroke="#000000" d="M 1192 544 L 1339.3662109375 544 L 1339.3662109375 661 L 1192 661 L 1192 544 Z Z" stroke-miterlimit="10"/></g><g transform="translate(-22,-110) scale(1,1)"><path fill="none" stroke="#000000" d="M 1192 569 L 1339.3662109375 569" stroke-miterlimit="10"/></g><g transform="translate(-22,-110) scale(1,1)"><path fill="none" stroke="#000000" d="M 1192 592 L 1339.3662109375 592" stroke-miterlimit="10"/></g><g transform="translate(-22,-110) scale(1,1)"><g><path fill="none" stroke="none"/><text fill="#000000" stroke="none" font-family="Arial" font-size="13px" font-style="normal" font-weight="bold" text-decoration="none" x="1222.69677734375" y="562">Fornecedores</text></g></g><g transform="translate(-22,-110) scale(1,1)"><g><path fill="none" stroke="none"/><text fill="#000000" stroke="none" font-family="Arial" font-size="13px" font-style="normal" font-weight="normal" text-decoration="none" x="1197" y="585">-nome_do_produto</text></g></g><g transform="translate(-22,-110) scale(1,1)"><g><path fill="none" stroke="none"/><text fill="#000000" stroke="none" font-family="Arial" font-size="13px" font-style="normal" font-weight="normal" text-decoration="none" x="1197" y="608">+cadastrarFuncionario()</text></g></g><g transform="translate(-22,-110) scale(1,1)"><g><path fill="none" stroke="none"/><text fill="#000000" stroke="none" font-family="Arial" font-size="13px" font-style="normal" font-weight="normal" text-decoration="none" x="1197" y="623">+editarFuncionario()</text></g></g><g transform="translate(-22,-110) scale(1,1)"><g><path fill="none" stroke="none"/><text fill="#000000" stroke="none" font-family="Arial" font-size="13px" font-style="normal" font-weight="normal" text-decoration="none" x="1197" y="638">+eliminarFuncionario()</text></g></g><g transform="translate(-22,-110) scale(1,1)"><g><path fill="none" stroke="none"/><text fill="#000000" stroke="none" font-family="Arial" font-size="13px" font-style="normal" font-weight="normal" text-decoration="none" x="1197" y="653">+verFuncionario()</text></g></g><g transform="translate(-22,-110) scale(1,1)"><rect fill="#C0C0C0" stroke="none" x="807" y="527" width="131.46533203125" height="160" opacity="0.2"/></g><g transform="translate(-22,-110) scale(1,1)"><rect fill="#ffffff" stroke="none" x="800" y="520" width="131.46533203125" height="160"/></g><g transform="translate(-22,-110) scale(1,1)"><path fill="none" stroke="#000000" d="M 800 520 L 931.46533203125 520 L 931.46533203125 680 L 800 680 L 800 520 Z Z" stroke-miterlimit="10"/></g><g transform="translate(-22,-110) scale(1,1)"><path fill="none" stroke="#000000" d="M 800 545 L 931.46533203125 545" stroke-miterlimit="10"/></g><g transform="translate(-22,-110) scale(1,1)"><path fill="none" stroke="#000000" d="M 800 613 L 931.46533203125 613" stroke-miterlimit="10"/></g><g transform="translate(-22,-110) scale(1,1)"><g><path fill="none" stroke="none"/><text fill="#000000" stroke="none" font-family="Arial" font-size="13px" font-style="normal" font-weight="bold" text-decoration="none" x="840.8212890625" y="538">Produto</text></g></g><g transform="translate(-22,-110) scale(1,1)"><g><path fill="none" stroke="none"/><text fill="#000000" stroke="none" font-family="Arial" font-size="13px" font-style="normal" font-weight="normal" text-decoration="none" x="805" y="561">-nome_fornecedor</text></g></g><g transform="translate(-22,-110) scale(1,1)"><g><path fill="none" stroke="none"/><text fill="#000000" stroke="none" font-family="Arial" font-size="13px" font-style="normal" font-weight="normal" text-decoration="none" x="805" y="574.5">-nome</text></g></g><g transform="translate(-22,-110) scale(1,1)"><g><path fill="none" stroke="none"/><text fill="#000000" stroke="none" font-family="Arial" font-size="13px" font-style="normal" font-weight="normal" text-decoration="none" x="805" y="589.5">-preco</text></g></g><g transform="translate(-22,-110) scale(1,1)"><g><path fill="none" stroke="none"/><text fill="#000000" stroke="none" font-family="Arial" font-size="13px" font-style="normal" font-weight="normal" text-decoration="none" x="805" y="606">-categoria</text></g></g><g transform="translate(-22,-110) scale(1,1)"><g><path fill="none" stroke="none"/><text fill="#000000" stroke="none" font-family="Arial" font-size="13px" font-style="normal" font-weight="normal" text-decoration="none" x="805" y="629">+cadastrarProduto()</text></g></g><g transform="translate(-22,-110) scale(1,1)"><g><path fill="none" stroke="none"/><text fill="#000000" stroke="none" font-family="Arial" font-size="13px" font-style="normal" font-weight="normal" text-decoration="none" x="805" y="644">+editarProduto()</text></g></g><g transform="translate(-22,-110) scale(1,1)"><g><path fill="none" stroke="none"/><text fill="#000000" stroke="none" font-family="Arial" font-size="13px" font-style="normal" font-weight="normal" text-decoration="none" x="805" y="659">+eliminarProduto()</text></g></g><g transform="translate(-22,-110) scale(1,1)"><g><path fill="none" stroke="none"/><text fill="#000000" stroke="none" font-family="Arial" font-size="13px" font-style="normal" font-weight="normal" text-decoration="none" x="805" y="674">+visualizarProdutos()</text></g></g><g transform="translate(-22,-110) scale(1,1)"><rect fill="#C0C0C0" stroke="none" x="631" y="559" width="148.80712890625" height="132" opacity="0.2"/></g><g transform="translate(-22,-110) scale(1,1)"><rect fill="#ffffff" stroke="none" x="624" y="552" width="148.80712890625" height="132"/></g><g transform="translate(-22,-110) scale(1,1)"><path fill="none" stroke="#000000" d="M 624 552 L 772.80712890625 552 L 772.80712890625 684 L 624 684 L 624 552 Z Z" stroke-miterlimit="10"/></g><g transform="translate(-22,-110) scale(1,1)"><path fill="none" stroke="#000000" d="M 624 577 L 772.80712890625 577" stroke-miterlimit="10"/></g><g transform="translate(-22,-110) scale(1,1)"><path fill="none" stroke="#000000" d="M 624 630 L 772.80712890625 630" stroke-miterlimit="10"/></g><g transform="translate(-22,-110) scale(1,1)"><g><path fill="none" stroke="none"/><text fill="#000000" stroke="none" font-family="Arial" font-size="13px" font-style="normal" font-weight="bold" text-decoration="none" x="659.752685546875" y="570">Notificacoes</text></g></g><g transform="translate(-22,-110) scale(1,1)"><g><path fill="none" stroke="none"/><text fill="#000000" stroke="none" font-family="Arial" font-size="13px" font-style="normal" font-weight="normal" text-decoration="none" x="629" y="593">-titulo</text></g></g><g transform="translate(-22,-110) scale(1,1)"><g><path fill="none" stroke="none"/><text fill="#000000" stroke="none" font-family="Arial" font-size="13px" font-style="normal" font-weight="normal" text-decoration="none" x="629" y="608">-id_funcionario</text></g></g><g transform="translate(-22,-110) scale(1,1)"><g><path fill="none" stroke="none"/><text fill="#000000" stroke="none" font-family="Arial" font-size="13px" font-style="normal" font-weight="normal" text-decoration="none" x="629" y="623">-id_administrador</text></g></g><g transform="translate(-22,-110) scale(1,1)"><g><path fill="none" stroke="none"/><text fill="#000000" stroke="none" font-family="Arial" font-size="13px" font-style="normal" font-weight="normal" text-decoration="none" x="629" y="646">+addNotificacao()</text></g></g><g transform="translate(-22,-110) scale(1,1)"><g><path fill="none" stroke="none"/><text fill="#000000" stroke="none" font-family="Arial" font-size="13px" font-style="normal" font-weight="normal" text-decoration="none" x="629" y="661">+eliminarNotificacao()</text></g></g><g transform="translate(-22,-110) scale(1,1)"><g><path fill="none" stroke="none"/><text fill="#000000" stroke="none" font-family="Arial" font-size="13px" font-style="normal" font-weight="normal" text-decoration="none" x="629" y="676">+verTodasNotificacoes()</text></g></g><g transform="translate(-22,-110) scale(1,1)"><rect fill="#C0C0C0" stroke="none" x="983" y="559" width="137.29248046875" height="162" opacity="0.2"/></g><g transform="translate(-22,-110) scale(1,1)"><rect fill="#ffffff" stroke="none" x="976" y="552" width="137.29248046875" height="162"/></g><g transform="translate(-22,-110) scale(1,1)"><path fill="none" stroke="#000000" d="M 976 552 L 1113.29248046875 552 L 1113.29248046875 714 L 976 714 L 976 552 Z Z" stroke-miterlimit="10"/></g><g transform="translate(-22,-110) scale(1,1)"><path fill="none" stroke="#000000" d="M 976 577 L 1113.29248046875 577" stroke-miterlimit="10"/></g><g transform="translate(-22,-110) scale(1,1)"><path fill="none" stroke="#000000" d="M 976 660 L 1113.29248046875 660" stroke-miterlimit="10"/></g><g transform="translate(-22,-110) scale(1,1)"><g><path fill="none" stroke="none"/><text fill="#000000" stroke="none" font-family="Arial" font-size="13px" font-style="normal" font-weight="bold" text-decoration="none" x="1020.442626953125" y="570">Actores</text></g></g><g transform="translate(-22,-110) scale(1,1)"><g><path fill="none" stroke="none"/><text fill="#000000" stroke="none" font-family="Arial" font-size="13px" font-style="normal" font-weight="normal" text-decoration="none" x="981" y="593">-data</text></g></g><g transform="translate(-22,-110) scale(1,1)"><g><path fill="none" stroke="none"/><text fill="#000000" stroke="none" font-family="Arial" font-size="13px" font-style="normal" font-weight="normal" text-decoration="none" x="981" y="606.5">-genero</text></g></g><g transform="translate(-22,-110) scale(1,1)"><g><path fill="none" stroke="none"/><text fill="#000000" stroke="none" font-family="Arial" font-size="13px" font-style="normal" font-weight="normal" text-decoration="none" x="981" y="623">-localizacao</text></g></g><g transform="translate(-22,-110) scale(1,1)"><g><path fill="none" stroke="none"/><text fill="#000000" stroke="none" font-family="Arial" font-size="13px" font-style="normal" font-weight="normal" text-decoration="none" x="981" y="638">-foto</text></g></g><g transform="translate(-22,-110) scale(1,1)"><g><path fill="none" stroke="none"/><text fill="#000000" stroke="none" font-family="Arial" font-size="13px" font-style="normal" font-weight="normal" text-decoration="none" x="981" y="653">-senha</text></g></g><g transform="translate(-22,-110) scale(1,1)"><rect fill="#C0C0C0" stroke="none" x="439" y="551" width="124.22900390625" height="117" opacity="0.2"/></g><g transform="translate(-22,-110) scale(1,1)"><rect fill="#ffffff" stroke="none" x="432" y="544" width="124.22900390625" height="117"/></g><g transform="translate(-22,-110) scale(1,1)"><path fill="none" stroke="#000000" d="M 432 544 L 556.22900390625 544 L 556.22900390625 661 L 432 661 L 432 544 Z Z" stroke-miterlimit="10"/></g><g transform="translate(-22,-110) scale(1,1)"><path fill="none" stroke="#000000" d="M 432 569 L 556.22900390625 569" stroke-miterlimit="10"/></g><g transform="translate(-22,-110) scale(1,1)"><path fill="none" stroke="#000000" d="M 432 594 L 556.22900390625 594" stroke-miterlimit="10"/></g><g transform="translate(-22,-110) scale(1,1)"><g><path fill="none" stroke="none"/><text fill="#000000" stroke="none" font-family="Arial" font-size="13px" font-style="normal" font-weight="bold" text-decoration="none" x="451.128173828125" y="562">FichaDeStock</text></g></g><g transform="translate(-22,-110) scale(1,1)"><g><path fill="none" stroke="none"/><text fill="#000000" stroke="none" font-family="Arial" font-size="13px" font-style="normal" font-weight="normal" text-decoration="none" x="437" y="587">-nome_do_produto</text></g></g><g transform="translate(-22,-110) scale(1,1)"><g><path fill="none" stroke="none"/><text fill="#000000" stroke="none" font-family="Arial" font-size="13px" font-style="normal" font-weight="normal" text-decoration="none" x="437" y="610">+verFichaDeStock()</text></g></g><g transform="translate(-22,-110) scale(1,1)"><g><path fill="none" stroke="none"/><text fill="#000000" stroke="none" font-family="Arial" font-size="13px" font-style="normal" font-weight="normal" text-decoration="none" x="437" y="625">+addProduto()</text></g></g><g transform="translate(-22,-110) scale(1,1)"><rect fill="#C0C0C0" stroke="none" x="887" y="775" width="134.02978515625" height="117" opacity="0.2"/></g><g transform="translate(-22,-110) scale(1,1)"><rect fill="#ffffff" stroke="none" x="880" y="768" width="134.02978515625" height="117"/></g><g transform="translate(-22,-110) scale(1,1)"><path fill="none" stroke="#000000" d="M 880 768 L 1014.02978515625 768 L 1014.02978515625 885 L 880 885 L 880 768 Z Z" stroke-miterlimit="10"/></g><g transform="translate(-22,-110) scale(1,1)"><path fill="none" stroke="#000000" d="M 880 793 L 1014.02978515625 793" stroke-miterlimit="10"/></g><g transform="translate(-22,-110) scale(1,1)"><path fill="none" stroke="#000000" d="M 880 803 L 1014.02978515625 803" stroke-miterlimit="10"/></g><g transform="translate(-22,-110) scale(1,1)"><g><path fill="none" stroke="none"/><text fill="#000000" stroke="none" font-family="Arial" font-size="13px" font-style="normal" font-weight="bold" text-decoration="none" x="902.593994140625" y="786">Administrador</text></g></g><g transform="translate(-22,-110) scale(1,1)"><g><path fill="none" stroke="none"/><text fill="#000000" stroke="none" font-family="Arial" font-size="13px" font-style="normal" font-weight="normal" text-decoration="none" x="885" y="819">+fazerLogin()</text></g></g><g transform="translate(-22,-110) scale(1,1)"><g><path fill="none" stroke="none"/><text fill="#000000" stroke="none" font-family="Arial" font-size="13px" font-style="normal" font-weight="normal" text-decoration="none" x="885" y="834">+editar()</text></g></g><g transform="translate(-22,-110) scale(1,1)"><g><path fill="none" stroke="none"/><text fill="#000000" stroke="none" font-family="Arial" font-size="13px" font-style="normal" font-weight="normal" text-decoration="none" x="885" y="849">+reportar()</text></g></g><g transform="translate(-22,-110) scale(1,1)"><g><path fill="none" stroke="none"/><text fill="#000000" stroke="none" font-family="Arial" font-size="13px" font-style="normal" font-weight="normal" text-decoration="none" x="885" y="864">+verDadosAdm()</text></g></g><g transform="translate(-22,-110) scale(1,1)"><rect fill="#C0C0C0" stroke="none" x="199" y="463" width="126.03173828125" height="117" opacity="0.2"/></g><g transform="translate(-22,-110) scale(1,1)"><rect fill="#ffffff" stroke="none" x="192" y="456" width="126.03173828125" height="117"/></g><g transform="translate(-22,-110) scale(1,1)"><path fill="none" stroke="#000000" d="M 192 456 L 318.03173828125 456 L 318.03173828125 573 L 192 573 L 192 456 Z Z" stroke-miterlimit="10"/></g><g transform="translate(-22,-110) scale(1,1)"><path fill="none" stroke="#000000" d="M 192 481 L 318.03173828125 481" stroke-miterlimit="10"/></g><g transform="translate(-22,-110) scale(1,1)"><path fill="none" stroke="#000000" d="M 192 549 L 318.03173828125 549" stroke-miterlimit="10"/></g><g transform="translate(-22,-110) scale(1,1)"><g><path fill="none" stroke="none"/><text fill="#000000" stroke="none" font-family="Arial" font-size="13px" font-style="normal" font-weight="bold" text-decoration="none" x="196.5" y="474">Controle_de_stock</text></g></g><g transform="translate(-22,-110) scale(1,1)"><g><path fill="none" stroke="none"/><text fill="#000000" stroke="none" font-family="Arial" font-size="13px" font-style="normal" font-weight="normal" text-decoration="none" x="197" y="497">#id_ficha_de_stock</text></g></g><g transform="translate(-22,-110) scale(1,1)"><g><path fill="none" stroke="none"/><text fill="#000000" stroke="none" font-family="Arial" font-size="13px" font-style="normal" font-weight="normal" text-decoration="none" x="197" y="512">#valor</text></g></g><g transform="translate(-22,-110) scale(1,1)"><g><path fill="none" stroke="none"/><text fill="#000000" stroke="none" font-family="Arial" font-size="13px" font-style="normal" font-weight="normal" text-decoration="none" x="197" y="527">#quantidade</text></g></g><g transform="translate(-22,-110) scale(1,1)"><g><path fill="none" stroke="none"/><text fill="#000000" stroke="none" font-family="Arial" font-size="13px" font-style="normal" font-weight="normal" text-decoration="none" x="197" y="542">#total</text></g></g><g transform="translate(-22,-110) scale(1,1)"><rect fill="#C0C0C0" stroke="none" x="391" y="695" width="112.68896484375" height="57" opacity="0.2"/></g><g transform="translate(-22,-110) scale(1,1)"><rect fill="#ffffff" stroke="none" x="384" y="688" width="112.68896484375" height="57"/></g><g transform="translate(-22,-110) scale(1,1)"><path fill="none" stroke="#000000" d="M 384 688 L 496.68896484375 688 L 496.68896484375 745 L 384 745 L 384 688 Z Z" stroke-miterlimit="10"/></g><g transform="translate(-22,-110) scale(1,1)"><path fill="none" stroke="#000000" d="M 384 713 L 496.68896484375 713" stroke-miterlimit="10"/></g><g transform="translate(-22,-110) scale(1,1)"><path fill="none" stroke="#000000" d="M 384 723 L 496.68896484375 723" stroke-miterlimit="10"/></g><g transform="translate(-22,-110) scale(1,1)"><g><path fill="none" stroke="none"/><text fill="#000000" stroke="none" font-family="Arial" font-size="13px" font-style="normal" font-weight="bold" text-decoration="none" x="423.002685546875" y="706">Saida</text></g></g><g transform="translate(-22,-110) scale(1,1)"><g><path fill="none" stroke="none"/><text fill="#000000" stroke="none" font-family="Arial" font-size="13px" font-style="normal" font-weight="normal" text-decoration="none" x="389" y="739">+cadastrarSaida()</text></g></g><g transform="translate(-22,-110) scale(1,1)"><rect fill="#C0C0C0" stroke="none" x="79" y="663" width="124.9716796875" height="57" opacity="0.2"/></g><g transform="translate(-22,-110) scale(1,1)"><rect fill="#ffffff" stroke="none" x="72" y="656" width="124.9716796875" height="57"/></g><g transform="translate(-22,-110) scale(1,1)"><path fill="none" stroke="#000000" d="M 72 656 L 196.9716796875 656 L 196.9716796875 713 L 72 713 L 72 656 Z Z" stroke-miterlimit="10"/></g><g transform="translate(-22,-110) scale(1,1)"><path fill="none" stroke="#000000" d="M 72 681 L 196.9716796875 681" stroke-miterlimit="10"/></g><g transform="translate(-22,-110) scale(1,1)"><path fill="none" stroke="#000000" d="M 72 691 L 196.9716796875 691" stroke-miterlimit="10"/></g><g transform="translate(-22,-110) scale(1,1)"><g><path fill="none" stroke="none"/><text fill="#000000" stroke="none" font-family="Arial" font-size="13px" font-style="normal" font-weight="bold" text-decoration="none" x="110.285400390625" y="674">Entrada</text></g></g><g transform="translate(-22,-110) scale(1,1)"><g><path fill="none" stroke="none"/><text fill="#000000" stroke="none" font-family="Arial" font-size="13px" font-style="normal" font-weight="normal" text-decoration="none" x="77" y="707">+cadastrarEntrada()</text></g></g><g transform="translate(-22,-110) scale(1,1)"><rect fill="#C0C0C0" stroke="none" x="207" y="759" width="138.68896484375" height="57" opacity="0.2"/></g><g transform="translate(-22,-110) scale(1,1)"><rect fill="#ffffff" stroke="none" x="200" y="752" width="138.68896484375" height="57"/></g><g transform="translate(-22,-110) scale(1,1)"><path fill="none" stroke="#000000" d="M 200 752 L 338.68896484375 752 L 338.68896484375 809 L 200 809 L 200 752 Z Z" stroke-miterlimit="10"/></g><g transform="translate(-22,-110) scale(1,1)"><path fill="none" stroke="#000000" d="M 200 777 L 338.68896484375 777" stroke-miterlimit="10"/></g><g transform="translate(-22,-110) scale(1,1)"><path fill="none" stroke="#000000" d="M 200 787 L 338.68896484375 787" stroke-miterlimit="10"/></g><g transform="translate(-22,-110) scale(1,1)"><g><path fill="none" stroke="none"/><text fill="#000000" stroke="none" font-family="Arial" font-size="13px" font-style="normal" font-weight="bold" text-decoration="none" x="237.187255859375" y="770">Existencia</text></g></g><g transform="translate(-22,-110) scale(1,1)"><g><path fill="none" stroke="none"/><text fill="#000000" stroke="none" font-family="Arial" font-size="13px" font-style="normal" font-weight="normal" text-decoration="none" x="205" y="803">+cadastrarExistencia()</text></g></g><g transform="translate(-22,-110) scale(1,1)"><rect fill="#C0C0C0" stroke="none" x="1183" y="775" width="148.8134765625" height="117" opacity="0.2"/></g><g transform="translate(-22,-110) scale(1,1)"><rect fill="#ffffff" stroke="none" x="1176" y="768" width="148.8134765625" height="117"/></g><g transform="translate(-22,-110) scale(1,1)"><path fill="none" stroke="#000000" d="M 1176 768 L 1324.8134765625 768 L 1324.8134765625 885 L 1176 885 L 1176 768 Z Z" stroke-miterlimit="10"/></g><g transform="translate(-22,-110) scale(1,1)"><path fill="none" stroke="#000000" d="M 1176 793 L 1324.8134765625 793" stroke-miterlimit="10"/></g><g transform="translate(-22,-110) scale(1,1)"><path fill="none" stroke="#000000" d="M 1176 803 L 1324.8134765625 803" stroke-miterlimit="10"/></g><g transform="translate(-22,-110) scale(1,1)"><g><path fill="none" stroke="none"/><text fill="#000000" stroke="none" font-family="Arial" font-size="13px" font-style="normal" font-weight="bold" text-decoration="none" x="1213.212646484375" y="786">Funcionario</text></g></g><g transform="translate(-22,-110) scale(1,1)"><g><path fill="none" stroke="none"/><text fill="#000000" stroke="none" font-family="Arial" font-size="13px" font-style="normal" font-weight="normal" text-decoration="none" x="1181" y="819">+fazerLogin()</text></g></g><g transform="translate(-22,-110) scale(1,1)"><g><path fill="none" stroke="none"/><text fill="#000000" stroke="none" font-family="Arial" font-size="13px" font-style="normal" font-weight="normal" text-decoration="none" x="1181" y="834">+eliminarUser()</text></g></g><g transform="translate(-22,-110) scale(1,1)"><g><path fill="none" stroke="none"/><text fill="#000000" stroke="none" font-family="Arial" font-size="13px" font-style="normal" font-weight="normal" text-decoration="none" x="1181" y="849">+editarUser()</text></g></g><g transform="translate(-22,-110) scale(1,1)"><g><path fill="none" stroke="none"/><text fill="#000000" stroke="none" font-family="Arial" font-size="13px" font-style="normal" font-weight="normal" text-decoration="none" x="1181" y="864">+cadastrarUser()</text></g></g><g transform="translate(-22,-110) scale(1,1)"><g><path fill="none" stroke="none"/><text fill="#000000" stroke="none" font-family="Arial" font-size="13px" font-style="normal" font-weight="normal" text-decoration="none" x="1181" y="879">+verDadosFuncionario()</text></g></g><g transform="translate(-22,-110) scale(1,1)"><rect fill="#C0C0C0" stroke="none" x="967" y="415" width="135.8515625" height="87" opacity="0.2"/></g><g transform="translate(-22,-110) scale(1,1)"><rect fill="#ffffff" stroke="none" x="960" y="408" width="135.8515625" height="87"/></g><g transform="translate(-22,-110) scale(1,1)"><path fill="none" stroke="#000000" d="M 960 408 L 1095.8515625 408 L 1095.8515625 495 L 960 495 L 960 408 Z Z" stroke-miterlimit="10"/></g><g transform="translate(-22,-110) scale(1,1)"><path fill="none" stroke="#000000" d="M 960 433 L 1095.8515625 433" stroke-miterlimit="10"/></g><g transform="translate(-22,-110) scale(1,1)"><path fill="none" stroke="#000000" d="M 960 486 L 1095.8515625 486" stroke-miterlimit="10"/></g><g transform="translate(-22,-110) scale(1,1)"><g><path fill="none" stroke="none"/><text fill="#000000" stroke="none" font-family="Arial" font-size="13px" font-style="normal" font-weight="bold" text-decoration="none" x="1000.468994140625" y="426">Personal</text></g></g><g transform="translate(-22,-110) scale(1,1)"><g><path fill="none" stroke="none"/><text fill="#000000" stroke="none" font-family="Arial" font-size="13px" font-style="normal" font-weight="normal" text-decoration="none" x="965" y="449">#nome</text></g></g><g transform="translate(-22,-110) scale(1,1)"><g><path fill="none" stroke="none"/><text fill="#000000" stroke="none" font-family="Arial" font-size="13px" font-style="normal" font-weight="normal" text-decoration="none" x="965" y="464">#email</text></g></g><g transform="translate(-22,-110) scale(1,1)"><g><path fill="none" stroke="none"/><text fill="#000000" stroke="none" font-family="Arial" font-size="13px" font-style="normal" font-weight="normal" text-decoration="none" x="965" y="479">#numero_de_telefone</text></g></g><g transform="translate(-22,-110) scale(1,1)"><rect fill="#C0C0C0" stroke="none" x="663" y="327" width="74.76171875" height="57" opacity="0.2"/></g><g transform="translate(-22,-110) scale(1,1)"><rect fill="#ffffff" stroke="none" x="656" y="320" width="74.76171875" height="57"/></g><g transform="translate(-22,-110) scale(1,1)"><path fill="none" stroke="#000000" d="M 656 320 L 730.76171875 320 L 730.76171875 377 L 656 377 L 656 320 Z Z" stroke-miterlimit="10"/></g><g transform="translate(-22,-110) scale(1,1)"><path fill="none" stroke="#000000" d="M 656 345 L 730.76171875 345" stroke-miterlimit="10"/></g><g transform="translate(-22,-110) scale(1,1)"><path fill="none" stroke="#000000" d="M 656 368 L 730.76171875 368" stroke-miterlimit="10"/></g><g transform="translate(-22,-110) scale(1,1)"><g><path fill="none" stroke="none"/><text fill="#000000" stroke="none" font-family="Arial" font-size="13px" font-style="normal" font-weight="bold" text-decoration="none" x="660.5" y="338">AllClasses</text></g></g><g transform="translate(-22,-110) scale(1,1)"><g><path fill="none" stroke="none"/><text fill="#000000" stroke="none" font-family="Arial" font-size="13px" font-style="normal" font-weight="normal" text-decoration="none" x="661" y="361">#id</text></g></g><g transform="translate(-22,-110) scale(1,1)"><rect fill="#C0C0C0" stroke="none" x="663" y="423" width="72.2353515625" height="72" opacity="0.2"/></g><g transform="translate(-22,-110) scale(1,1)"><rect fill="#ffffff" stroke="none" x="656" y="416" width="72.2353515625" height="72"/></g><g transform="translate(-22,-110) scale(1,1)"><path fill="none" stroke="#000000" d="M 656 416 L 728.2353515625 416 L 728.2353515625 488 L 656 488 L 656 416 Z Z" stroke-miterlimit="10"/></g><g transform="translate(-22,-110) scale(1,1)"><path fill="none" stroke="#000000" d="M 656 441 L 728.2353515625 441" stroke-miterlimit="10"/></g><g transform="translate(-22,-110) scale(1,1)"><path fill="none" stroke="#000000" d="M 656 479 L 728.2353515625 479" stroke-miterlimit="10"/></g><g transform="translate(-22,-110) scale(1,1)"><g><path fill="none" stroke="none"/><text fill="#000000" stroke="none" font-family="Arial" font-size="13px" font-style="normal" font-weight="bold" text-decoration="none" x="665.752685546875" y="434">Registro</text></g></g><g transform="translate(-22,-110) scale(1,1)"><g><path fill="none" stroke="none"/><text fill="#000000" stroke="none" font-family="Arial" font-size="13px" font-style="normal" font-weight="normal" text-decoration="none" x="661" y="457">#data</text></g></g><g transform="translate(-22,-110) scale(1,1)"><g><path fill="none" stroke="none"/><text fill="#000000" stroke="none" font-family="Arial" font-size="13px" font-style="normal" font-weight="normal" text-decoration="none" x="661" y="472">#descricao</text></g></g><g transform="translate(-22,-110) scale(1,1)"><path fill="none" stroke="#000000" d="M 692 415 L 693 378" stroke-miterlimit="10"/></g><g transform="translate(-22,-110) scale(1,1)"><path fill="#FFFFFF" stroke="none" d="M 700.8668290577189 398.54538879107986 L 693 378 L 684.0349044368618 398.09047190943505"/></g><g transform="translate(-22,-110) scale(1,1)"><path fill="none" stroke="#000000" d="M 700.8668290577189 398.54538879107986 L 693 378 L 684.0349044368618 398.09047190943505 L 700.8668290577189 398.54538879107986" stroke-miterlimit="10"/></g><g transform="translate(-22,-110) scale(1,1)"><path fill="none" stroke="#000000" d="M 959 430 L 732 360" stroke-miterlimit="10"/></g><g transform="translate(-22,-110) scale(1,1)"><path fill="#FFFFFF" stroke="none" d="M 753.9037385396558 357.94421840012177 L 732 360 L 748.9419391646402 374.0346249448153"/></g><g transform="translate(-22,-110) scale(1,1)"><path fill="none" stroke="#000000" d="M 753.9037385396558 357.94421840012177 L 732 360 L 748.9419391646402 374.0346249448153 L 753.9037385396558 357.94421840012177" stroke-miterlimit="10"/></g><g transform="translate(-22,-110) scale(1,1)"><path fill="none" stroke="#000000" d="M 319 490 L 655 362" stroke-miterlimit="10"/></g><g transform="translate(-22,-110) scale(1,1)"><path fill="#FFFFFF" stroke="none" d="M 639.0033472880729 377.10321495622685 L 655 362 L 633.0090726778441 361.36824410437623"/></g><g transform="translate(-22,-110) scale(1,1)"><path fill="none" stroke="#000000" d="M 639.0033472880729 377.10321495622685 L 655 362 L 633.0090726778441 361.36824410437623 L 639.0033472880729 377.10321495622685" stroke-miterlimit="10"/></g><g transform="translate(-22,-110) scale(1,1)"><path fill="none" stroke="#000000" d="M 557 554 L 655 480" stroke-miterlimit="10"/></g><g transform="translate(-22,-110) scale(1,1)"><path fill="#FFFFFF" stroke="none" d="M 643.8528633367675 498.966848557713 L 655 480 L 633.706196841718 485.52937130751224"/></g><g transform="translate(-22,-110) scale(1,1)"><path fill="none" stroke="#000000" d="M 643.8528633367675 498.966848557713 L 655 480 L 633.706196841718 485.52937130751224 L 643.8528633367675 498.966848557713" stroke-miterlimit="10"/></g><g transform="translate(-22,-110) scale(1,1)"><path fill="none" stroke="#000000" d="M 696 551 L 693 489" stroke-miterlimit="10"/></g><g transform="translate(-22,-110) scale(1,1)"><path fill="#FFFFFF" stroke="none" d="M 702.3915323537567 508.89470080318733 L 693 489 L 685.573138365463 509.7084940606854"/></g><g transform="translate(-22,-110) scale(1,1)"><path fill="none" stroke="#000000" d="M 702.3915323537567 508.89470080318733 L 693 489 L 685.573138365463 509.7084940606854 L 702.3915323537567 508.89470080318733" stroke-miterlimit="10"/></g><g transform="translate(-22,-110) scale(1,1)"><path fill="none" stroke="#000000" d="M 799 544 L 729 484" stroke-miterlimit="10"/></g><g transform="translate(-22,-110) scale(1,1)"><path fill="#FFFFFF" stroke="none" d="M 749.9111916507358 490.83535395910116 L 729 484 L 738.9531202826361 503.6197705552175"/></g><g transform="translate(-22,-110) scale(1,1)"><path fill="none" stroke="#000000" d="M 749.9111916507358 490.83535395910116 L 729 484 L 738.9531202826361 503.6197705552175 L 749.9111916507358 490.83535395910116" stroke-miterlimit="10"/></g><g transform="translate(-22,-110) scale(1,1)"><path fill="none" stroke="#000000" d="M 155 655 L 212 574" stroke-miterlimit="10"/></g><g transform="translate(-22,-110) scale(1,1)"><path fill="#FFFFFF" stroke="none" d="M 207.1880365467424 595.4673008951873 L 212 574 L 193.41775397462067 585.7771020481388"/></g><g transform="translate(-22,-110) scale(1,1)"><path fill="none" stroke="#000000" d="M 207.1880365467424 595.4673008951873 L 212 574 L 193.41775397462067 585.7771020481388 L 207.1880365467424 595.4673008951873" stroke-miterlimit="10"/></g><g transform="translate(-22,-110) scale(1,1)"><path fill="none" stroke="#000000" d="M 267 751 L 258 574" stroke-miterlimit="10"/></g><g transform="translate(-22,-110) scale(1,1)"><path fill="#FFFFFF" stroke="none" d="M 267.44033192946074 593.871591105435 L 258 574 L 250.62398590035423 594.7266595475929"/></g><g transform="translate(-22,-110) scale(1,1)"><path fill="none" stroke="#000000" d="M 267.44033192946074 593.871591105435 L 258 574 L 250.62398590035423 594.7266595475929 L 267.44033192946074 593.871591105435" stroke-miterlimit="10"/></g><g transform="translate(-22,-110) scale(1,1)"><path fill="none" stroke="#000000" d="M 413 687 L 310 574" stroke-miterlimit="10"/></g><g transform="translate(-22,-110) scale(1,1)"><path fill="#FFFFFF" stroke="none" d="M 329.9142494021532 583.3500091309496 L 310 574 L 317.4700459338521 594.6929556551532"/></g><g transform="translate(-22,-110) scale(1,1)"><path fill="none" stroke="#000000" d="M 329.9142494021532 583.3500091309496 L 310 574 L 317.4700459338521 594.6929556551532 L 329.9142494021532 583.3500091309496" stroke-miterlimit="10"/></g><g transform="translate(-22,-110) scale(1,1)"><path fill="none" stroke="#000000" d="M 1191 555 L 1097 495" stroke-miterlimit="10"/></g><g transform="translate(-22,-110) scale(1,1)"><path fill="#FFFFFF" stroke="none" d="M 1118.6624282772957 498.8391667235247 L 1097 495 L 1109.6029491075328 513.032350756153"/></g><g transform="translate(-22,-110) scale(1,1)"><path fill="none" stroke="#000000" d="M 1118.6624282772957 498.8391667235247 L 1097 495 L 1109.6029491075328 513.032350756153 L 1118.6624282772957 498.8391667235247" stroke-miterlimit="10"/></g><g transform="translate(-22,-110) scale(1,1)"><path fill="none" stroke="#000000" d="M 1036 551 L 1031 496" stroke-miterlimit="10"/></g><g transform="translate(-22,-110) scale(1,1)"><path fill="#FFFFFF" stroke="none" d="M 1041.224630971488 515.4796540394558 L 1031 496 L 1024.455710428602 517.0041013615363"/></g><g transform="translate(-22,-110) scale(1,1)"><path fill="none" stroke="#000000" d="M 1041.224630971488 515.4796540394558 L 1031 496 L 1024.455710428602 517.0041013615363 L 1041.224630971488 515.4796540394558" stroke-miterlimit="10"/></g><g transform="translate(-22,-110) scale(1,1)"><path fill="none" stroke="#000000" d="M 977 767 L 1003 715" stroke-miterlimit="10"/></g><g transform="translate(-22,-110) scale(1,1)"><path fill="#FFFFFF" stroke="none" d="M 1001.4404415580051 736.9446525938781 L 1003 715 L 986.3800129900944 729.4144383099228"/></g><g transform="translate(-22,-110) scale(1,1)"><path fill="none" stroke="#000000" d="M 1001.4404415580051 736.9446525938781 L 1003 715 L 986.3800129900944 729.4144383099228 L 1001.4404415580051 736.9446525938781" stroke-miterlimit="10"/></g><g transform="translate(-22,-110) scale(1,1)"><path fill="none" stroke="#000000" d="M 1184 767 L 1120 709 L 1114 703" stroke-miterlimit="10"/></g><g transform="translate(-22,-110) scale(1,1)"><path fill="#FFFFFF" stroke="none" d="M 1134.3253497152482 711.419035512032 L 1114 703 L 1122.419035512032 723.3253497152483"/></g><g transform="translate(-22,-110) scale(1,1)"><path fill="none" stroke="#000000" d="M 1134.3253497152482 711.419035512032 L 1114 703 L 1122.419035512032 723.3253497152483 L 1134.3253497152482 711.419035512032" stroke-miterlimit="10"/></g></g></svg>